<svg id="Layer_2" data-name="Layer 2" xmlns="http://www.w3.org/2000/svg" viewBox="0 0 1600 1600">
    <defs>
        <style>
            .cls-1{fill:#FDAC74;}.cls-2,.cls-6{fill:#fff;}.cls-2,.cls-4,.cls-5{stroke:#373d3b;stroke-linecap:round;stroke-linejoin:round;stroke-width:2.00px;}.cls-3,.cls-4{fill:#373d3b;}.cls-5{fill:none;}</style>
    </defs>
    <title>Gift 1.1</title>
    <path class="cls-1"
        d="M700.42,371.85s-.75-55.16-15.27-66.52c-13.44-10.51-39.43-10.81-39.43-10.81s34.88,1,44.81-15.48c10.71-17.79,11.66-45.45,11.66-45.45s2,40.72,12.23,50.25C723.13,292,751.79,296,751.79,296s-23.46-.15-36.54,11.22C701.76,319,700.42,371.85,700.42,371.85Z"></path>
    <path class="cls-2"
        d="M1130.73,656.51s-1-29-7.21-35.25c-6.89-6.89-28.29-6.67-28.29-6.67s22.45.89,29.48-9.26c5.15-7.43,6.57-32.73,6.57-32.73s2.91,33,6.67,36c4.41,3.48,21.75,6,21.75,6s-15.88,2.19-21.64,7C1132.11,626.54,1130.73,656.51,1130.73,656.51Z"></path>
    <path class="cls-3"
        d="M974.26,417.1s-.21-21.75-5.85-26.6c-4.73-4.08-17.61-3.49-17.61-3.49s16-.59,19.68-7.15S974.16,360,974.16,360s1.68,17.21,5.17,21c4.06,4.36,20.31,5.7,20.31,5.7s-13.32-1-19,4.75C976.07,396,974.26,417.1,974.26,417.1Z"></path>
    <circle class="cls-4" cx="1256.48" cy="803.56" r="3.98"></circle>
    <polygon class="cls-3" points="344.92 905.73 338.53 880.83 366.28 885.13 344.92 905.73"></polygon>
    <polygon class="cls-2" points="448.84 589.04 474.11 572.58 482.15 601.65 448.84 589.04"></polygon>
    <polygon class="cls-1"
        points="1023.37 1045.91 787.85 1045.91 552.33 1045.91 552.33 645.24 1023.37 645.24 1023.37 1045.91"></polygon>
    <line class="cls-2" x1="787.85" y1="645.24" x2="787.85" y2="1045.91"></line>
    <line class="cls-2" x1="552.33" y1="772.59" x2="1023.36" y2="772.59"></line>
    <path class="cls-2"
        d="M788.07,644.58S648,439.84,746.44,418.74C858.67,394.68,788.07,644.58,788.07,644.58Z"></path>
    <path class="cls-2"
        d="M788.17,644.83S895.6,486,942.37,529.72c65.57,61.24-154.2,115.11-154.2,115.11"></path>
    <path class="cls-5"
        d="M789.94,640.86c-19.15,46.34-74.17,70.74-125,54.69C617.2,680.48,589.68,635,598.77,590"></path>
    <path class="cls-5"
        d="M789.51,643.14c-16.59,35.58-39.93,108.29,24.12,153.45,104.2,73.47,258.07-29.48,220.78-76.3-25.91-32.52-102.41,59.31-5,111.59a107.13,107.13,0,0,0,38.75,12.19"></path>
    <path class="cls-3"
        d="M684.56,1188.8c5.16-.07,20.34-2.42,20.34-2.42s7.76-1.58,8.24-2.57c3.93-8.22.71-27.57-61-66.85-89.43-56.92-208.58-81.18-216-68.07-1.15,2-.42,7.33,3.54,16.33,13,29.45,64.29,68,125.29,93.54C631.16,1186.45,662.19,1189.12,684.56,1188.8Z"></path>
    <circle class="cls-2" cx="629.98" cy="973.65" r="22.26"></circle>
    <path class="cls-2"
        d="M651.85,969.41l-22.66-83.09a3.33,3.33,0,0,0-4-2.36c-2.25.57-5.42,2.63-8.32,9-12,26.23-9.11,83.46-9.11,83.46"></path>
    <path class="cls-5" d="M624.28,884.72s-4.23,29.78,7.3,27.72l3.94-.83"></path>
    <circle class="cls-2" cx="644.52" cy="1043.48" r="29.22"></circle>
    <polygon class="cls-6"
        points="615.7 1048.31 607.72 976.39 651.85 969.41 672.53 1035.14 615.7 1048.31"></polygon>
    <line class="cls-2" x1="651.8" y1="969.22" x2="672.53" y2="1035.14"></line>
    <line class="cls-2" x1="615.7" y1="1048.31" x2="607.72" y2="976.39"></line>
    <circle class="cls-2" cx="535.89" cy="881.17" r="19.84"></circle>
    <path class="cls-6"
        d="M517.18,874.63,535.87,790l3.46.46c15.18,2.36,15.43,39.13,16.37,59.14l-.08,33.86C548.4,881.52,518.33,875,517.18,874.63Z"></path>
    <path class="cls-2"
        d="M516.55,876.74l18.53-83.32a3.81,3.81,0,0,1,4.22-2.95h0c15.18,2.36,16.13,41.47,16.42,60.25l-.13,32.75"></path>
    <path class="cls-5" d="M539.33,790.47s8.5,30.17-3.44,30.17l-6.48-1.39"></path>
    <circle class="cls-2" cx="559.05" cy="998.69" r="23.39"></circle>
    <path class="cls-6"
        d="M555.72,880.93l26.19,112.79-45.38,11.82L516.28,884.2A381.14,381.14,0,0,1,555.72,880.93Z"></path>
    <line class="cls-2" x1="536.53" y1="1005.54" x2="516.28" y2="884.2"></line>
    <line class="cls-2" x1="555.72" y1="880.93" x2="581.91" y2="993.72"></line>
    <circle class="cls-2" cx="464.1" cy="897.01" r="19.03"></circle>
    <path class="cls-6"
        d="M446.89,888.94,473,810l3.26.78c14.25,3.73,10.06,28.53,6.83,63.92l-.34,26.4C476,898.56,448,889.39,446.89,888.94Z"></path>
    <path class="cls-2"
        d="M446.08,890.89l25.79-77.69a3.66,3.66,0,0,1,4.32-2.4h0c14.25,3.73,8.92,40.49,6.09,74.59l.4,15.72"></path>
    <path class="cls-5" d="M476.47,810.88s4.69,31-7.65,28.25L464,837.29"></path>
    <circle class="cls-2" cx="474.76" cy="1011.39" r="22.43"></circle>
    <path class="cls-6"
        d="M483.05,898.71l14,110.16-44.45,6.86L445.1,898A367,367,0,0,1,483.05,898.71Z"></path>
    <line class="cls-2" x1="452.61" y1="1015.73" x2="445.1" y2="897.98"></line>
    <line class="cls-2" x1="483.05" y1="898.71" x2="497.06" y2="1008.87"></line>
    <circle class="cls-2" cx="498.21" cy="878.82" r="20.84"></circle>
    <path class="cls-6"
        d="M479.26,870.21l27.53-86.79,3.58.81c15.66,3.9,13.59,54.64,10.71,74.38l-2.43,24.48C511.27,880.37,480.43,870.69,479.26,870.21Z"></path>
    <path class="cls-2"
        d="M478.39,872.36l27.25-85.45a4,4,0,0,1,4.7-2.68h0c15.66,3.9,14.75,54.91,9.9,79.08l-1.62,19.77"></path>
    <path class="cls-5" d="M510.37,784.23s5.62,30.22-6.2,30.19l-6.89-1"></path>
    <circle class="cls-2" cx="511.37" cy="1003.99" r="24.57"></circle>
    <path class="cls-6"
        d="M519,880.44l16.77,120.5-48.6,8.09-9.75-128.89A401.76,401.76,0,0,1,519,880.44Z"></path>
    <line class="cls-2" x1="487.16" y1="1009.03" x2="477.41" y2="880.14"></line>
    <line class="cls-2" x1="518.99" y1="880.44" x2="535.76" y2="1000.94"></line>
    <path class="cls-6"
        d="M680,1093.62c.31-33.78-7.5-58.48-7.5-58.48l-57,2.08-35-47.93-127.86,26.44L481,1111a946.76,946.76,0,0,0,83.93,47.78c24.81,12.31,99.18,33.35,101.26,27.47C674,1164,679.72,1126.48,680,1093.62Z"></path>
    <path class="cls-5" d="M666,1188.18c7-26,13.66-58.09,14-94.56.31-33.78-7.5-58.48-7.5-58.48"></path>
    <line class="cls-5" x1="452.61" y1="1015.73" x2="481" y2="1110.98"></line>
    <path class="cls-5"
        d="M627.59,1366l84.33-181.8s-56,26.44-189.17-46.52c-86.84-47.59-87.12-85.65-87.12-85.65l-92.17,189.27"></path>
    <path class="cls-3"
        d="M889.61,1186.81c-5.15-.07-20.34-2.42-20.34-2.42s-7.76-1.59-8.23-2.58c-3.94-8.22-.72-27.57,61-66.85,89.44-56.92,208.58-81.18,216-68.06,1.15,2,.43,7.32-3.54,16.32-13,29.45-64.28,68-125.28,93.54C943,1184.45,912,1187.13,889.61,1186.81Z"></path>
    <circle class="cls-2" cx="944.19" cy="971.66" r="22.26"></circle>
    <path class="cls-2"
        d="M922.33,967.42,945,884.32a3.34,3.34,0,0,1,4-2.36c2.26.57,5.42,2.63,8.32,9,12,26.24,9.11,83.46,9.11,83.46"></path>
    <path class="cls-5" d="M949.9,882.72s4.22,29.78-7.31,27.73l-3.94-.84"></path>
    <circle class="cls-2" cx="929.65" cy="1041.48" r="29.22"></circle>
    <polygon class="cls-6"
        points="958.47 1046.32 966.45 974.39 922.33 967.42 901.65 1033.14 958.47 1046.32"></polygon>
    <line class="cls-2" x1="922.38" y1="967.23" x2="901.65" y2="1033.14"></line>
    <line class="cls-2" x1="958.47" y1="1046.32" x2="966.45" y2="974.39"></line>
    <circle class="cls-2" cx="1038.29" cy="879.18" r="19.84"></circle>
    <path class="cls-6"
        d="M1057,872.64,1038.3,788l-3.46.47c-15.18,2.36-15.42,39.13-16.37,59.13l.08,33.87C1025.77,879.52,1055.84,873,1057,872.64Z"></path>
    <path class="cls-2"
        d="M1057.62,874.74l-18.53-83.32a3.81,3.81,0,0,0-4.22-2.95h0c-15.18,2.36-16.13,41.48-16.42,60.25l.13,32.75"></path>
    <path class="cls-5" d="M1034.84,788.48s-8.5,30.17,3.45,30.16l6.47-1.39"></path>
    <circle class="cls-2" cx="1015.13" cy="996.7" r="23.39"></circle>
    <path class="cls-6"
        d="M1018.45,878.94,992.26,991.73l45.38,11.81,20.25-121.34A379.53,379.53,0,0,0,1018.45,878.94Z"></path>
    <line class="cls-2" x1="1037.64" y1="1003.54" x2="1057.89" y2="882.2"></line>
    <line class="cls-2" x1="1018.45" y1="878.94" x2="992.26" y2="991.73"></line>
    <circle class="cls-2" cx="1110.08" cy="895.01" r="19.03"></circle>
    <path class="cls-6"
        d="M1127.28,887,1101.22,808l-3.27.78c-14.25,3.73-10.06,28.52-6.82,63.91l.34,26.41C1098.17,896.56,1126.22,887.4,1127.28,887Z"></path>
    <path class="cls-2"
        d="M1128.09,888.9l-25.79-77.7a3.65,3.65,0,0,0-4.32-2.4h0c-14.25,3.73-8.92,40.5-6.09,74.59l-.39,15.73"></path>
    <path class="cls-5" d="M1097.7,808.88s-4.69,31,7.65,28.25l4.87-1.83"></path>
    <circle class="cls-2" cx="1099.42" cy="1009.39" r="22.43"></circle>
    <path class="cls-6"
        d="M1091.13,896.71l-14,110.17,44.45,6.85L1129.08,896A365.39,365.39,0,0,0,1091.13,896.71Z"></path>
    <line class="cls-2" x1="1121.57" y1="1013.73" x2="1129.08" y2="895.99"></line>
    <line class="cls-2" x1="1091.13" y1="896.71" x2="1077.12" y2="1006.88"></line>
    <circle class="cls-2" cx="1075.96" cy="876.83" r="20.84"></circle>
    <path class="cls-6"
        d="M1094.92,868.22l-27.54-86.79-3.58.81c-15.66,3.9-13.59,54.63-10.71,74.38l2.44,24.47C1062.9,878.37,1093.75,868.7,1094.92,868.22Z"></path>
    <path class="cls-2"
        d="M1095.78,870.36l-27.25-85.44a4,4,0,0,0-4.7-2.69h0c-15.66,3.9-14.75,54.92-9.9,79.09l1.63,19.77"></path>
    <path class="cls-5" d="M1063.8,782.24s-5.62,30.22,6.21,30.19l6.89-1"></path>
    <circle class="cls-2" cx="1062.81" cy="1001.99" r="24.57"></circle>
    <path class="cls-6"
        d="M1055.18,878.45,1038.41,999,1087,1007l9.76-128.88A395.58,395.58,0,0,0,1055.18,878.45Z"></path>
    <line class="cls-2" x1="1087.01" y1="1007.03" x2="1096.77" y2="878.15"></line>
    <line class="cls-2" x1="1055.18" y1="878.45" x2="1038.41" y2="998.95"></line>
    <path class="cls-6"
        d="M894.15,1091.63c-.32-33.78,7.5-58.49,7.5-58.49l57,2.09,35-47.94,127.87,26.44L1093.18,1109a943.88,943.88,0,0,1-83.93,47.78c-24.82,12.32-99.19,33.36-101.26,27.47C900.14,1162,894.46,1124.48,894.15,1091.63Z"></path>
    <path class="cls-5" d="M908.16,1186.19c-7-26-13.67-58.09-14-94.56-.32-33.78,7.5-58.49,7.5-58.49"></path>
    <line class="cls-5" x1="1121.57" y1="1013.73" x2="1093.18" y2="1108.98"></line>
    <path class="cls-5"
        d="M946.58,1364l-84.33-181.8s56,26.44,189.17-46.52c86.84-47.59,87.12-85.65,87.12-85.65l92.17,189.28"></path>
</svg>